<svg width="498" height="539" viewBox="0 0 498 539" fill="none" xmlns="http://www.w3.org/2000/svg">
<path d="M1.73004 0.247359C15.3628 0.0344287 28.9776 -0.0565715 43.0009 0.036171C46.1963 0.0571433 45.8952 0.221717 47.2088 0.248335C49.6232 0.297496 53.675 0.119914 54.243 0.119914C57.7682 0.117651 56.3907 0.405703 56.8651 0.416797C62.1546 0.533744 60.6322 0.205642 65.6893 0.174114C72.2749 0.132979 80.7255 0.19167 88.6603 0.207807C91.4468 0.214259 90.2063 0.43355 96.2205 0.415088C100.481 0.402182 113.55 0.152245 119.568 0.419239C119.604 0.520056 118.844 0.631366 118.524 0.73541C127.151 0.315216 130.238 0.333651 142.469 0.436085C144.404 0.452217 146.236 0.279585 149.644 0.343309C153.051 0.407085 153.195 0.673204 160.046 0.669978C162.476 0.668195 163.951 0.480525 167.677 0.472463C178.275 0.44908 198.46 0.682176 207.158 0.690242C224.288 0.706364 233.609 0.386071 248.821 0.497366C249.993 0.505432 247.419 0.711104 249.567 0.715145C251.733 0.719179 253.988 0.446688 254.521 0.440235C260.272 0.370098 272.425 0.735142 275.623 0.690975C283.399 0.582887 275.737 0.462806 286.512 0.411182C296.773 0.362056 310.939 0.716829 321.11 0.786192C332.896 0.866799 336.697 0.351469 345.573 0.889467C376.744 0.85801 408.04 0.838763 439.247 0.811339C439.158 0.918588 439.055 1.02588 438.948 1.13313C441.416 1.05892 443.884 0.984598 446.352 0.911196C445.979 0.991029 445.625 1.07094 445.252 1.14997C456.842 0.841922 467.172 0.683005 480.714 0.767637C480.979 0.769241 480.283 0.983078 480.502 0.988591C483.555 1.02892 486.967 0.864421 489.648 0.903139C491.439 0.928781 493.576 0.982964 495.628 1.0359L496.591 1.03403L496.592 2C496.454 7.37245 496.324 12.1655 496.737 8.659C496.619 23.7649 496.812 41.5158 496.701 55.9121C496.654 62.1417 496.316 64.0081 496.296 66.9893C496.277 69.968 496.567 68.452 496.578 69.5094C496.643 75.8643 496.631 86.3229 496.306 87.4246C496.436 88.7023 496.567 90.0544 496.698 91.3499C496.337 90.5905 496.486 110.228 496.477 115.381C496.476 116.322 496.318 116.453 496.32 117.163C496.34 125.077 496.587 127.011 496.67 133.79C496.699 136.169 496.42 132.48 496.54 138.587C496.551 139.12 496.801 138.837 496.799 146.132C496.797 157.777 496.896 180.055 496.773 193.919C496.763 195.054 496.491 191.596 496.554 196.792C496.577 198.674 496.77 197.772 496.772 202.335C496.78 220.016 496.557 238.868 496.742 256.904C496.524 256.247 496.278 249.823 496.415 259.479C496.438 261.023 496.633 259.871 496.641 260.563C496.697 266.171 496.558 271.034 496.633 277.104C496.655 278.897 496.808 279.342 496.845 281.579C496.899 284.881 496.68 286.341 496.773 290.175C496.919 296.172 497.126 297.098 496.72 304.534C496.745 346.676 496.86 388.623 496.681 430.624C496.797 442.766 496.927 453.97 496.971 466.627C496.984 470.354 496.707 471.067 496.799 477.013C496.819 478.344 497.116 487.844 496.556 489.229C496.604 491.873 496.606 493.544 496.636 495.815C496.718 494.093 496.801 492.316 496.884 490.665C496.795 500.251 496.992 508.079 497.086 516.565C497.154 522.811 496.914 518.376 496.938 522.209C496.962 526.044 497.016 527.787 496.728 532.58C496.865 534.135 496.906 535.474 496.906 537L496.908 538.275L495.628 538.277C493.461 538.277 490.917 538.195 486.844 538.19C486.098 538.189 481.787 538.318 478.185 538.292C475.594 538.273 474.826 538.066 470.711 538.098C470.036 538.103 461.335 538.36 458.566 538.383C454.252 538.42 447.396 538.155 446.562 538.152C434.439 538.105 429.767 538.367 421.157 537.935C419.418 538.192 412.234 538.342 406.43 538.317C399.098 538.286 384.397 537.761 382.391 538.315C373.907 538.069 374.828 538.221 364.766 538.226C355.607 538.231 331.358 538.019 323.935 538.049C316.515 538.079 320.13 538.387 317.183 538.428C312.36 538.497 314.965 538.269 311.664 538.273C302.327 538.282 294.213 538.326 285.302 538.425C284.823 538.265 284.307 538.105 283.81 537.945C283.349 537.998 282.89 538.052 282.429 538.105C280.512 538.103 278.363 538.107 276.588 538.102C291.567 538.803 262.119 538.05 253.279 538.032C245.823 538.018 233.413 538.35 225.229 538.422C223.243 538.439 224.608 538.267 224.2 538.271C219.407 538.32 218.68 538.438 212.236 538.422C208.828 538.413 205.349 538.197 202.03 538.193C177.657 538.164 154.135 538.381 129.922 538.404C125.804 538.408 122.251 538.145 118.79 538.139C113.838 538.131 110.713 538.347 106.064 538.35C101.431 538.353 94.7531 538.095 91.6107 538.135C88.4687 538.173 93.8453 538.423 88.0936 538.355C85.4518 538.323 90.1179 538.137 86.8532 538.132C76.6641 538.114 62.2854 538.344 51.439 538.121C51.9182 538.177 52.5726 538.227 53.1582 538.28C41.602 538.258 31.3924 538.124 19.4632 538.105C15.2915 538.098 7.76814 538.261 3.66776 538.26C2.92129 538.26 2.24884 538.254 1.62842 538.245L0.386298 538.247L0.383875 537C0.427665 534.213 0.54707 532.476 0.551089 529.791C0.553509 528.442 0.394538 528.97 0.397764 528.064C0.439745 516.741 0.722727 510.527 0.690497 498.671C0.572729 455.232 0.471035 410.439 0.36456 366.325C0.360346 364.551 0.153248 363.357 0.12261 360.767C0.0751847 356.776 0.258253 356.581 0.264704 356.049C0.304992 352.57 0.13555 353.989 0.13555 349.321C0.135551 339.042 0.285667 322.461 0.272761 312.218C0.242915 288.608 0.0815178 268.762 4.76837e-05 245.613C-0.00640523 243.945 0.238771 245.076 0.241998 242.183C0.267776 221.789 0.0330322 217.472 0.0991716 192.088C0.165318 166.702 0.313836 118.788 0.347714 89.0715C0.348284 89.0715 0.348853 89.0715 0.349423 89.0715C-0.103856 79.7171 0.00888419 67.614 0.35162 57.5669C1.4696 115.51 0.97207 170.949 1.01643 232.833C1.06242 297.875 1.87474 367.214 1.76426 433.126C1.75377 439.322 1.49561 441.811 1.54965 447.03C1.55879 447.912 1.75775 445.628 1.77793 448.341C1.98833 477.281 1.7621 507.71 1.70922 537L1.62842 536.919C10.0676 536.934 18.4121 536.935 26.5995 536.907C36.4693 536.873 38.0171 536.651 46.6972 536.594C45.1712 536.699 44.1734 536.809 42.8425 536.914C82.4652 537.242 122.145 537.096 162.282 537.143C164.092 537.145 164.324 537.362 166.223 537.37C170.021 537.387 173.66 537.148 176.979 537.14C181.31 537.13 182.06 537.302 186.054 537.291C188.003 537.285 187.421 537.119 191.659 537.147C192.014 537.15 192.247 537.324 195.067 537.301C202.788 537.239 218.57 537.093 224.962 537.05C233.126 536.994 239.677 537.256 242.767 537.273C251.109 537.319 250.936 537.051 257.997 537.051C308.271 537.049 356.332 537.355 407.796 537.352C411.029 537.352 422.986 537.053 428.969 537.065C430.974 537.07 441.459 537.149 443.029 537.155C449.402 537.18 454.91 537.361 458.424 537.399C465.241 537.473 472.857 537.191 476.567 537.163C482.114 537.12 491.325 537.141 495.628 537.152L495.781 537.152L495.781 537C495.783 536.249 495.784 535.648 495.786 535.241C495.803 528.637 496.152 530.819 496.071 526.08C496.047 524.679 495.779 526.146 495.779 521.212C495.78 517.078 495.981 515.406 496.018 512.584C496.054 509.762 495.742 504.585 495.75 502.826C495.793 493.63 495.998 489.561 496.008 479.549C496.016 471.235 495.873 432.806 495.8 429.611C495.472 415.302 495.619 439.133 495.608 440.476C495.544 447.736 495.418 446.674 495.659 453.916C494.918 460.396 496.072 482.978 495.193 488.765C495.778 494.748 495.483 499.774 495.365 506.076C495.202 514.787 495.544 508.153 495.546 514.508C495.547 517.013 495.281 524.272 495.318 528.034C495.351 531.418 495.52 533.04 495.561 537L495.628 536.933C495.186 536.938 494.714 536.941 494.208 536.942C485.21 536.963 477.966 536.868 470.405 536.623C469.02 536.731 467.728 536.839 466.361 536.947C461.142 536.831 455.903 536.716 450.684 536.6C451.518 536.695 452.354 536.79 453.188 536.884C451.661 536.898 450.13 536.911 448.603 536.924C443.527 536.782 438.678 536.651 433.459 536.504C419.279 537.05 423.394 536.577 415.513 536.506C407.633 536.435 403.072 536.751 396.985 536.753C388.784 536.755 385.018 536.795 376.746 536.772C371.953 536.759 363.823 536.455 370.497 536.938C355.532 536.976 335.043 537.111 321.658 536.915C317.706 536.858 322.976 536.706 322.302 536.687C318.948 536.597 316.122 536.844 312.661 536.809C306.911 536.75 295.71 536.558 291.182 536.513C284.667 536.447 274.424 536.767 273.377 536.79C267.521 536.92 265.954 536.655 264.074 536.673C253.37 536.779 251.007 536.891 247.635 536.331C244.864 536.573 233.255 536.98 230.449 536.573C230.377 536.941 220.74 536.879 214.811 536.971C213.71 536.864 212.591 536.759 211.49 536.651C199.117 537.309 174.479 536.831 158.2 536.753C157.792 536.751 157.062 537.027 154.612 536.965C154.457 536.96 154.709 536.836 153.066 536.82C147.651 536.768 126.992 536.459 124.615 536.456C115.863 536.446 114.333 536.651 109.008 536.671C101.997 536.697 100.983 536.511 94.3113 536.537C91.1878 536.55 88.3454 536.794 83.4304 536.759C80.5203 536.739 80.2321 536.547 77.927 536.532C69.7257 536.476 63.7023 536.597 56.4241 536.347C54.5246 536.958 51.0463 536.508 47.4429 536.462C32.8158 536.274 14.5855 536.532 2.03481 536.476C1.89935 536.476 1.76378 536.475 1.62842 536.474L2.15403 537C2.32984 498.006 2.70404 463.39 2.78846 425.268C2.80217 419.054 2.49565 417.557 2.51501 411.042C2.52398 408.114 2.74592 405.095 2.74915 400.303C2.75233 396.452 2.63951 390.934 2.64026 386.124C2.64026 384.846 2.84837 384.732 2.84998 382.851C2.86205 368.579 2.7143 354.643 2.61267 340.229C2.57485 334.888 2.8506 331.583 2.37072 332.489C2.48848 330.447 2.59101 328.463 2.70716 326.546C2.40467 319.196 2.71989 313.194 2.64246 303.253C2.63323 302.181 2.30146 294.675 2.54089 290.417C2.36993 290.116 2.22476 290.777 2.06993 290.653C2.0046 286.446 2.20206 279.983 2.22228 277.142C2.24242 274.305 2.02034 272.406 2.01817 271.552C2.01253 268.303 2.3046 269.061 2.30944 268.812C2.58929 253.672 2.43369 255.266 1.99571 246.124C1.88523 243.833 2.2061 228.291 1.86021 225.147C2.0013 225.005 2.12548 225.872 2.26012 226.12C2.29642 221.451 2.33369 216.746 2.36999 212.06C2.23447 213.054 2.09883 214.248 1.96251 215.153C2.08026 205.586 1.76095 197.631 1.77134 189.803C1.77779 185.33 2.07716 185.875 2.01182 183.248C1.99888 182.734 1.7966 183.603 1.78037 182.078C1.64889 169.634 1.8626 164.182 1.90293 151.72C1.9222 145.88 1.55453 140.769 1.79649 132.391C1.81914 131.627 2.14561 123.407 1.67783 118.331C1.82544 116.715 1.90298 115.291 2.02721 114.084C1.3327 103.805 2.01334 106.646 2.17467 92.7456C2.2585 85.5529 2.13681 61.3595 2.06261 53.5316C2.0174 48.8695 1.74442 48.9545 1.7335 48.1225C1.67059 43.1526 1.93518 43.1487 1.8917 38.5526C1.84815 33.9548 1.54884 28.1465 1.57626 23.4244C1.59739 19.8073 1.92613 22.6586 1.81162 17.3166C1.78683 16.2102 1.50785 19.3715 1.61728 13.7367C1.63422 12.8491 1.93599 3.84619 2.00133 2C2.17636 6.74019 2.40472 20.4805 2.4757 25.6461C3.70176 114.603 3.71452 293.795 3.56045 388.786C3.5467 397.607 3.25953 403.376 3.23451 409.127C3.20951 414.879 3.47261 410.016 3.45083 415.235C3.42824 420.454 3.24259 424.256 3.22646 429.138C3.11676 462.049 3.00066 495.208 2.94984 527.852C2.94489 531.102 2.97333 534.102 3.01028 537L1.62842 535.618C6.28131 535.559 10.6728 535.478 15.4202 535.478C18.4183 535.478 18.5111 535.754 20.6409 535.751C43.593 535.729 64.826 535.464 87.654 535.496C97.1327 535.51 107.374 535.742 116.764 535.764C124.503 535.783 132.526 535.624 139.484 535.62C143.261 535.618 145.253 535.828 146.62 535.845C151.378 535.899 149.715 535.643 152.147 535.643C158.856 535.644 162.193 535.953 168.476 535.929C170.943 535.92 170.626 535.722 174.207 535.692C178.751 535.653 177.07 535.835 180.315 535.841C180.51 535.842 179.874 535.701 181.595 535.695C192.672 535.658 206.503 535.547 217.19 535.557C239.29 535.576 261.107 535.848 281.698 535.901C286.9 535.914 285.519 535.73 287.17 535.721C295.122 535.679 297.962 535.899 306.287 535.82C307.672 535.807 313.248 535.553 318.573 535.617C321.448 535.652 324.712 535.811 327.162 535.848C329.611 535.885 330.003 535.651 332.948 535.651C338.308 535.65 336.749 535.812 344.417 535.783C347.506 535.772 357.819 535.55 365.771 535.567C378.766 535.595 394.87 535.797 410.19 535.8C415.445 535.802 422.194 535.562 430.343 535.559C440.301 535.556 458.651 535.611 468.858 535.614C474.077 535.615 474.454 535.867 475.076 535.878C479.067 535.948 477.455 535.667 480.131 535.678C483.806 535.693 487.235 535.9 490.573 535.914C492.702 535.923 493.04 535.716 493.501 535.714C494.214 535.711 494.923 535.708 495.628 535.706L494.334 537C494.275 520.788 494.292 506.253 494.271 489.99C494.151 398.976 493.885 307.091 494.005 216.254C494.015 208.638 494.276 208.352 494.235 201.659C494.195 194.967 493.63 188.502 494.254 182.998C494.128 182.821 494.038 182.838 493.924 182.661C494.101 168.833 493.917 155.003 493.895 141.476C493.878 131.465 493.898 122.587 493.912 113.34C493.925 105.142 494.144 105.85 493.858 98.753C494.021 66.549 493.999 34.0293 494.221 2L495.628 3.40786C492.576 3.38675 489.527 3.36344 486.484 3.33753C478.283 3.80619 470.421 3.51091 459.077 3.44154C457.677 3.43277 459.179 3.60377 455.027 3.58925C449.81 3.57139 447.111 3.31014 438.328 3.32459C436.003 3.32863 418.778 3.61828 412.405 3.46986C406.032 3.32147 396.801 3.23436 390.18 3.09241C391.121 3.20452 392.312 3.31176 393.36 3.42225C390.058 3.44161 386.738 3.46027 383.436 3.47963C382.957 3.34492 382.477 3.2101 382.015 3.07459C380.098 3.20284 378.18 3.3295 376.245 3.45936C372.074 2.76736 376.35 2.99306 367.068 3.1681C362.417 3.25521 358.725 3.1343 353.949 3.20447C352.229 3.23027 351.128 3.43404 349.231 3.4601C344.581 3.523 347.291 3.24254 344.419 3.24403C341.525 3.24645 337.371 3.5545 332.187 3.41737C337.599 2.86817 321.958 3.04733 321.212 3.47401C319.35 3.4748 317.789 3.45707 315.732 3.46913C317.632 2.39147 307.881 3.15623 304.011 3.30384C300.144 3.45124 300.3 3.16169 299.395 3.17298C296.788 3.20445 298.687 3.32469 296.859 3.32875C284.753 3.35294 273.353 3.17617 261.406 3.16004C259.687 3.15774 261.212 3.32137 259.208 3.30531C257.202 3.28917 255.279 3.12628 252.315 3.13758C251.519 3.14044 251.27 3.28418 250.03 3.28431C224.059 3.27786 199.4 3.1554 172.913 3.13685C170.517 3.13523 168.635 3.3908 164.003 3.38197C159.371 3.3731 152.341 3.14246 146.59 3.12464C145.064 3.1198 144.649 3.33268 142.626 3.32704C135.739 3.30764 129.807 3.13431 122.654 3.10608C110.566 3.05853 97.9104 3.18841 85.6456 3.06262C83.3205 3.03924 83.692 2.86168 80.3386 2.81164C74.5514 2.72533 76.7292 2.98424 75.5575 3.01892C71.7245 3.13096 70.5199 2.78686 66.8119 2.87536C66.2449 2.88905 67.0537 3.09312 66.545 3.09632C58.663 3.13181 58.2492 2.65352 49.8702 2.91003C42.4189 2.63503 54.8649 2.54135 56.1429 2.39537C59.2643 2.04051 51.0128 1.62351 46.149 1.48958C41.9605 1.37426 41.9913 1.59519 40.3238 1.5953C31.5018 1.5961 18.3641 1.63811 11.6533 1.53328C7.58802 1.47037 14.9157 1.37833 12.8387 1.30574C10.7801 1.23324 9.44743 1.39928 7.3354 1.21785C5.2229 1.03635 0.913443 0.502253 1.73004 0.247359ZM496.192 249.25C495.321 235.723 495.412 199.849 495.495 180.588C495.564 164.611 496.236 150.838 495.263 154.139C495.256 171.41 495.354 185.38 495.324 203.646C495.321 205.545 495.231 216.874 495.215 220.815C495.206 223.033 495.045 223.104 495.047 226.122C495.047 226.779 495.257 230.42 495.252 231.751C495.233 236.312 494.911 249.876 494.92 251.77C494.947 257.022 495.197 255.007 495.243 257.273C495.393 264.889 495.017 265.728 495.139 273.273C495.161 274.622 495.488 279.096 495.445 284.688C495.427 286.96 495.259 290.83 495.267 292.57C495.31 302.049 495.534 312.631 495.497 321.311C495.466 328.427 495.214 326.513 495.18 330.277C495.147 334.04 495.44 338.584 495.456 341.158C495.483 345.276 495.317 350.282 495.319 351.56C495.368 376.732 495.561 399.117 495.631 423.401C495.746 406.909 495.852 390.437 495.971 374.052C495.71 364.75 495.955 369.38 496.036 363.257C496.101 358.411 495.658 357.239 495.707 350.869C495.707 350.874 495.707 350.879 495.707 350.884C495.733 347.6 496.04 340.482 495.911 333.487C495.906 333.239 495.677 332.616 495.669 327.38C495.651 315.611 495.533 297.577 495.582 284.335C495.597 280.447 495.838 281.239 495.868 276.641C495.889 273.287 495.666 269.402 495.716 264.151C495.78 257.564 496.164 254.405 495.631 249.878C495.821 249.505 496.007 249.694 496.192 249.25ZM379.103 1.90024C378.178 1.87916 365.789 1.28402 369.462 1.91953C386.114 2.19539 404.116 2.05836 421.638 2.21323C415.655 1.58487 405.534 1.83253 393.25 1.87851C393.245 1.87851 393.239 1.87851 393.234 1.87851C392.654 1.88065 395.079 1.71643 391.782 1.74618C390.184 1.7607 384.056 2.01236 379.103 1.90024Z" fill="#FACA51"/>
</svg>
