<svg width="1321" height="2" viewBox="0 0 1321 2" fill="none" xmlns="http://www.w3.org/2000/svg">
<path d="M0.0652304 0.123679C8.81591 0.0172143 17.5551 -0.0282857 26.5564 0.0180855C28.6075 0.0285717 28.4142 0.110858 29.2574 0.124168C30.8072 0.148748 33.4079 0.0599568 33.7725 0.0599568C36.0353 0.0588254 35.1511 0.202851 35.4556 0.208399C38.8509 0.266872 37.8736 0.102821 41.1197 0.0870572C45.3469 0.0664895 50.7713 0.0958349 55.8645 0.103903C57.6531 0.107129 56.8568 0.216775 60.7172 0.207544C63.452 0.201091 71.841 0.0761223 75.7039 0.209619C75.7266 0.260028 75.2388 0.315683 75.0337 0.367705C80.571 0.157608 82.5528 0.166825 90.4033 0.218042C91.6453 0.226109 92.8213 0.139793 95.0091 0.171654C97.1959 0.203543 97.2883 0.336602 101.686 0.334989C103.246 0.334098 104.192 0.240263 106.584 0.236231C113.387 0.22454 126.343 0.341088 131.926 0.345121C142.922 0.353182 148.905 0.193035 158.67 0.248683C159.422 0.252716 157.77 0.355552 159.148 0.357573C160.538 0.359589 161.986 0.223344 162.328 0.220118C166.019 0.185049 173.82 0.367571 175.873 0.345487C180.864 0.291443 175.946 0.231403 182.863 0.205591C189.449 0.181028 198.542 0.358414 205.071 0.393096C212.636 0.4334 215.076 0.175735 220.773 0.444733C240.781 0.429005 260.87 0.419382 280.901 0.40567C280.844 0.459294 280.778 0.512939 280.709 0.566563C282.293 0.529459 283.877 0.492299 285.461 0.455598C285.222 0.495515 284.995 0.535473 284.756 0.574986C292.195 0.420961 298.826 0.341502 307.518 0.383819C307.688 0.384621 307.241 0.491539 307.382 0.494295C309.342 0.514461 311.532 0.432211 313.253 0.45157C317.412 0.49795 324.476 0.731089 321.366 0.445954C331.062 0.504827 342.456 0.408424 351.697 0.463655C355.695 0.487445 356.893 0.656427 358.807 0.666175C360.719 0.675843 359.746 0.530639 360.425 0.525058C364.504 0.492795 371.217 0.498785 371.924 0.661292C372.744 0.59638 373.612 0.530679 374.444 0.465364C373.956 0.645546 386.562 0.57107 389.869 0.575474C390.473 0.576281 390.557 0.655263 391.013 0.654456C396.092 0.64434 397.334 0.520543 401.686 0.479402C403.213 0.464883 400.845 0.604073 404.765 0.543979C405.106 0.538701 404.925 0.413653 409.607 0.414459C417.082 0.415666 431.382 0.366069 440.281 0.427765C441.01 0.432604 438.79 0.568917 442.125 0.537143C443.333 0.52585 442.755 0.42906 445.683 0.428253C457.032 0.424222 469.134 0.535504 480.711 0.443146C480.289 0.55244 476.165 0.675041 482.364 0.606481C483.354 0.595162 482.615 0.497558 483.059 0.493929C486.659 0.465725 489.78 0.535446 493.677 0.497958C494.827 0.486665 495.113 0.410025 496.549 0.391875C498.668 0.364868 499.606 0.474144 502.067 0.427765C505.916 0.354771 506.511 0.251181 511.284 0.454377C538.334 0.441471 565.259 0.384261 592.219 0.473787C600.012 0.415712 607.204 0.350826 615.328 0.328641C617.721 0.322189 618.179 0.460899 621.995 0.414947C622.85 0.404865 628.947 0.25599 629.836 0.536289C631.533 0.512107 632.606 0.51129 634.064 0.496371C632.959 0.455233 631.818 0.413641 630.758 0.3721C636.911 0.416865 641.936 0.318051 647.383 0.271267C651.393 0.237006 648.545 0.357206 651.006 0.345121C653.467 0.333425 654.587 0.30638 657.663 0.450349C660.078 0.284257 661.684 0.400746 666.139 0.405181C666.617 0.405582 669.384 0.341173 671.697 0.354033C673.36 0.363306 673.853 0.466886 676.494 0.450837C676.927 0.448417 682.512 0.320078 684.29 0.308377C687.059 0.289824 691.459 0.422612 691.995 0.424225C699.776 0.447594 702.776 0.316503 708.302 0.53226C709.418 0.404037 714.03 0.32899 717.755 0.341459C722.461 0.357188 731.898 0.619368 733.185 0.342313C738.631 0.465711 738.04 0.389552 744.499 0.387115C750.378 0.384695 765.943 0.490674 770.708 0.475374C775.47 0.460451 773.15 0.306362 775.041 0.285793C778.137 0.251598 776.465 0.365289 778.584 0.363676C784.577 0.358835 789.786 0.337107 795.505 0.287502C795.813 0.367327 796.144 0.447553 796.463 0.527377C796.759 0.500776 797.054 0.474143 797.35 0.447541C798.58 0.448348 799.96 0.446709 801.099 0.449128C791.484 0.0987099 810.386 0.475046 816.06 0.483919C820.846 0.491177 828.813 0.324984 834.066 0.289089C835.34 0.28026 834.464 0.366516 834.726 0.364531C837.802 0.339929 838.269 0.281023 842.405 0.289089C844.593 0.29353 846.826 0.401546 848.956 0.403594C864.601 0.418113 879.7 0.309581 895.242 0.297879C897.885 0.295862 900.165 0.427724 902.387 0.430573C905.566 0.434605 907.572 0.326641 910.556 0.324979C913.53 0.323366 917.816 0.452392 919.833 0.432648C921.85 0.413289 918.399 0.288256 922.091 0.322538C923.786 0.338292 920.791 0.431402 922.887 0.434235C929.427 0.443107 938.657 0.327795 945.619 0.439484C945.311 0.411664 944.891 0.386626 944.515 0.360014C951.933 0.370906 958.486 0.437862 966.143 0.447541C968.821 0.451139 973.65 0.369396 976.282 0.36978C978.914 0.370183 980.111 0.458878 982.219 0.461335C983.085 0.462545 982.746 0.38306 983.327 0.384673C990.596 0.405664 994.584 0.547154 1002.19 0.53104C1030.08 0.472156 1058.83 0.421309 1087.15 0.368071C1088.28 0.365964 1089.05 0.262415 1090.71 0.247096C1093.27 0.223383 1093.4 0.314917 1093.74 0.318143C1095.97 0.338287 1095.06 0.253566 1098.06 0.253566C1104.66 0.253566 1115.3 0.328624 1121.88 0.322171C1137.03 0.307248 1149.77 0.22655 1164.63 0.185815C1165.7 0.182588 1164.97 0.305177 1166.83 0.30679C1179.92 0.319679 1182.69 0.202307 1198.99 0.235377C1215.28 0.26845 1246.04 0.342709 1265.11 0.359648C1265.11 0.359933 1265.11 0.360218 1265.11 0.360502C1271.11 0.133863 1278.88 0.190233 1285.33 0.361601C1248.14 0.920592 1212.55 0.671826 1172.83 0.694008C1131.08 0.717002 1086.57 1.12316 1044.27 1.06792C1040.29 1.06268 1038.69 0.933595 1035.34 0.960617C1034.78 0.965187 1036.24 1.06467 1034.5 1.07476C1010.57 1.21027 985.058 0.983534 961.563 1.04644C955.227 1.06337 954.234 1.17429 948.662 1.20293C949.642 1.15052 950.282 1.09571 951.137 1.04289C925.703 0.879149 900.234 0.952148 874.47 0.928756C873.308 0.927521 873.16 0.819016 871.94 0.814983C869.502 0.806532 867.167 0.92591 865.037 0.929977C862.256 0.93522 861.775 0.848889 859.211 0.854535C857.96 0.857424 858.334 0.940391 855.613 0.926314C855.385 0.925105 855.236 0.838059 853.426 0.849286C848.47 0.880338 838.34 0.953357 834.237 0.975144C828.996 1.00297 824.791 0.871844 822.808 0.863324C817.453 0.84034 817.565 0.974609 813.032 0.974656C780.762 0.975462 749.912 0.822685 716.879 0.823895C714.803 0.823955 707.128 0.973445 703.288 0.967453C702.001 0.965035 695.271 0.925549 694.263 0.922286C690.172 0.909783 686.637 0.819412 684.381 0.800456C680.005 0.763384 675.116 0.904509 672.735 0.918624C668.554 0.943617 661.127 0.925065 659.371 0.921432C655.132 0.912559 656.533 0.737993 653.49 0.778727C652.591 0.790896 653.533 0.924728 650.366 0.924728C647.713 0.92427 646.639 0.823484 644.828 0.805339C643.016 0.787302 639.693 0.943164 638.564 0.939254C632.662 0.917475 630.05 0.815343 623.623 0.8101C618.286 0.806084 593.619 0.877532 591.568 0.914229C582.384 1.07822 597.68 1.00465 598.543 1.01018C603.203 1.04204 602.521 1.10496 607.17 0.984788C611.329 1.35543 625.824 0.778338 629.539 1.21795C633.379 0.925143 636.605 1.07276 640.65 1.13164C646.242 1.21303 641.984 1.0424 646.062 1.04119C647.671 1.04087 652.33 1.17387 654.745 1.15532C657.16 1.13674 658.177 1.03475 661.412 1.0291C667.188 1.01863 671.838 1.06623 676.691 1.18841C677.579 1.13438 678.409 1.08032 679.286 1.02629C682.636 1.08437 685.999 1.14209 689.349 1.19976C688.814 1.15257 688.277 1.10498 687.742 1.05779C688.722 1.05093 689.705 1.04447 690.685 1.03801C693.943 1.10899 697.056 1.1747 700.405 1.2481C709.508 0.975144 706.866 1.21139 711.925 1.24688C716.983 1.28233 719.911 1.12432 723.818 1.12346C729.082 1.12225 731.499 1.10253 736.809 1.11382C739.885 1.12027 745.104 1.27275 740.82 1.03118C750.426 1.01182 763.577 0.944401 772.169 1.04241C774.706 1.071 771.323 1.14709 771.756 1.15655C773.909 1.2013 775.722 1.07796 777.944 1.09563C781.635 1.12507 788.825 1.2211 791.731 1.24371C795.913 1.27637 802.488 1.1166 803.16 1.10491C806.919 1.04001 807.924 1.17266 809.131 1.1635C816.002 1.11027 817.519 1.05456 819.684 1.33441C821.462 1.21341 828.914 1.00982 830.714 1.21343C830.761 1.02955 836.947 1.06055 840.753 1.01457C841.459 1.06781 842.178 1.12073 842.884 1.17437C850.826 0.845277 866.641 1.08433 877.09 1.12346C877.352 1.12427 877.821 0.986448 879.393 1.0175C879.493 1.02005 879.331 1.08199 880.386 1.09002C883.862 1.11584 897.122 1.27055 898.648 1.27191C904.266 1.27715 905.248 1.17428 908.666 1.1646C913.166 1.1517 913.817 1.24453 918.1 1.23125C920.105 1.22521 921.929 1.10302 925.084 1.12029C926.952 1.13037 927.137 1.22632 928.616 1.23406C933.881 1.26189 937.747 1.20133 942.419 1.32635C943.638 1.02111 945.871 1.24609 948.184 1.2691C957.573 1.36307 969.274 1.23408 977.331 1.2619C1002.47 1.34941 1024.76 1.53766 1049.31 1.58002C1053.3 1.58688 1054.26 1.43362 1058.44 1.4433C1060.32 1.44778 1062.26 1.55875 1065.34 1.56037C1067.81 1.56196 1071.35 1.50555 1074.44 1.50592C1075.26 1.50592 1075.33 1.60998 1076.54 1.61078C1085.7 1.61682 1094.64 1.54294 1103.9 1.49213C1107.32 1.47322 1109.44 1.61109 1108.86 1.37115C1110.17 1.43003 1111.45 1.4813 1112.68 1.53937C1117.4 1.38813 1121.25 1.54574 1127.63 1.50702C1128.32 1.50241 1133.14 1.33652 1135.87 1.45624C1136.06 1.37076 1135.64 1.29817 1135.72 1.22076C1138.42 1.18809 1142.57 1.28682 1144.39 1.29693C1146.21 1.307 1147.43 1.19596 1147.98 1.19488C1150.06 1.19205 1149.58 1.33809 1149.74 1.34051C1159.46 1.48043 1158.43 1.40264 1164.3 1.18365C1165.77 1.12841 1175.75 1.28884 1177.77 1.1159C1177.86 1.18644 1177.3 1.24853 1177.14 1.31585C1180.14 1.334 1183.16 1.35264 1186.17 1.37079C1185.53 1.30303 1184.76 1.2352 1184.18 1.16704C1190.32 1.22592 1195.43 1.06627 1200.45 1.07146C1203.32 1.07469 1202.97 1.22437 1204.66 1.1917C1204.99 1.18523 1204.43 1.08409 1205.41 1.07598C1213.4 1.01024 1216.9 1.11709 1224.9 1.13726C1228.65 1.14689 1231.93 0.963054 1237.3 1.08403C1237.79 1.09536 1243.07 1.2586 1246.33 1.02471C1247.37 1.09851 1248.28 1.13728 1249.06 1.19939C1255.65 0.85214 1253.83 1.19246 1262.75 1.27313C1267.37 1.31504 1282.9 1.2542 1287.92 1.21709C1290.92 1.19449 1290.86 1.058 1291.39 1.05254C1294.58 1.02108 1294.59 1.15338 1297.54 1.13164C1300.49 1.10986 1304.22 0.960211 1307.25 0.973923C1309.57 0.984485 1307.74 1.14886 1311.17 1.0916C1311.88 1.07921 1309.85 0.939715 1313.47 0.994432C1314.04 1.0029 1319.81 1.15379 1321 1.18645C1317.96 1.27397 1309.14 1.38815 1305.82 1.42364C1248.72 2.03667 1133.7 2.04305 1072.73 1.96602C1067.07 1.95914 1063.36 1.81556 1059.67 1.80305C1055.98 1.79055 1059.1 1.9221 1055.75 1.91121C1052.4 1.89991 1049.96 1.80709 1046.83 1.79902C1025.7 1.74417 1004.42 1.68612 983.463 1.66071C978.028 1.65426 973.684 1.76118 968.739 1.76118C966.814 1.76111 966.755 1.62324 965.388 1.62445C950.655 1.63536 937.026 1.76803 922.373 1.7519C916.289 1.74503 909.715 1.62888 903.687 1.61798C898.72 1.60871 893.57 1.68812 889.104 1.68976C886.679 1.69097 885.401 1.58597 884.523 1.5777C881.469 1.55027 882.537 1.67853 880.976 1.67853C876.669 1.6781 874.527 1.52325 870.494 1.53534C868.911 1.54018 869.115 1.63886 866.815 1.65424C863.899 1.67359 864.978 1.58256 862.895 1.57929C862.77 1.57888 863.178 1.64944 862.074 1.65229C854.963 1.67084 846.086 1.72646 839.226 1.72163C825.04 1.71194 811.036 1.576 797.818 1.54938C794.48 1.54293 795.366 1.63491 794.306 1.63935C789.202 1.66029 787.379 1.55026 782.036 1.58979C781.147 1.59626 777.567 1.72361 774.149 1.69135C772.304 1.67398 770.209 1.59454 768.636 1.57599C767.064 1.55745 766.812 1.67442 764.922 1.6745C761.482 1.67491 762.482 1.59383 757.56 1.60834C755.578 1.61399 748.958 1.72481 743.854 1.71638C735.513 1.70266 725.175 1.60141 715.342 1.5998C711.969 1.59899 707.636 1.71919 702.406 1.7204C696.014 1.72201 684.235 1.69468 677.684 1.69306C674.334 1.69225 674.091 1.56634 673.693 1.5611C671.131 1.52607 672.165 1.66675 670.447 1.6612C668.089 1.65354 665.887 1.54977 663.745 1.54291C662.378 1.53852 662.162 1.6422 661.865 1.64301C650.904 1.67729 641.218 1.66761 630.325 1.6789C571.904 1.73859 512.925 1.87168 454.618 1.81159C449.729 1.80675 449.545 1.67604 445.25 1.6966C440.954 1.71677 436.804 1.99908 433.272 1.68732C433.158 1.75024 433.169 1.7951 433.055 1.85237C424.179 1.76366 415.301 1.85548 406.619 1.86677C400.193 1.87524 394.495 1.8652 388.559 1.85835C383.297 1.85187 383.751 1.74225 379.196 1.88533C356.554 1.79579 333.67 1.81759 311.222 1.66877C305.957 1.90309 300.911 1.75546 293.63 1.72077C292.731 1.71638 293.695 1.80188 291.03 1.79463C287.681 1.7857 285.949 1.65507 280.311 1.6623C278.818 1.66431 267.762 1.80914 263.672 1.73493C259.581 1.66073 253.656 1.61718 249.406 1.54621C250.01 1.60226 250.774 1.65588 251.447 1.71113C249.327 1.72081 247.196 1.73013 245.077 1.73981C244.769 1.67246 244.461 1.60505 244.165 1.53729C242.934 1.60142 241.703 1.66475 240.461 1.72968C237.784 1.38368 240.529 1.49653 234.57 1.58405C231.585 1.62761 229.215 1.56715 226.15 1.60224C225.045 1.61513 224.339 1.71702 223.121 1.73005C220.136 1.7615 221.876 1.62127 220.032 1.62201C218.175 1.62322 215.508 1.77725 212.181 1.70869C215.655 1.43409 205.615 1.52367 205.136 1.73701C203.941 1.7374 202.939 1.72853 201.619 1.73457C202.838 1.19574 196.579 1.57811 194.095 1.65192C191.613 1.72562 191.713 1.58084 191.132 1.58649C189.458 1.60223 190.677 1.66234 189.504 1.66437C181.733 1.67647 174.416 1.58809 166.747 1.58002C165.644 1.57887 166.623 1.66069 165.336 1.65265C164.049 1.64459 162.815 1.56314 160.912 1.56879C160.401 1.57022 160.241 1.64209 159.446 1.64216C142.775 1.63893 126.946 1.5777 109.945 1.56842C108.407 1.56762 107.199 1.6954 104.226 1.69098C101.252 1.68655 96.7404 1.57123 93.0489 1.56232C92.0689 1.5599 91.8031 1.66634 90.504 1.66352C86.0836 1.65382 82.2758 1.56716 77.6843 1.55304C69.9256 1.52927 61.802 1.5942 53.9294 1.53131C52.4369 1.51962 52.6754 1.43084 50.5229 1.40582C46.8082 1.36267 48.2061 1.49212 47.454 1.50946C44.9936 1.56548 44.2205 1.39343 41.8403 1.43768C41.4764 1.44452 41.9955 1.54656 41.669 1.54816C36.6097 1.5659 36.3441 1.32676 30.9657 1.45502C26.1828 1.31752 34.1717 1.27068 34.992 1.19768C36.9956 1.02026 31.6991 0.811756 28.5771 0.744791C25.8886 0.68713 25.9084 0.797597 24.838 0.797649C19.1753 0.798052 10.7424 0.819056 6.4348 0.766642C3.82538 0.735183 8.52892 0.689167 7.19572 0.652869C5.87435 0.61662 5.01891 0.699639 3.66323 0.608923C2.30725 0.518177 -0.458932 0.251127 0.0652304 0.123679ZM475.797 0.718179C467.115 1.15374 444.088 1.10824 431.724 1.0667C421.469 1.03201 412.628 0.696412 414.747 1.18279C425.833 1.18601 434.801 1.13723 446.525 1.15215C447.744 1.15376 455.016 1.1989 457.545 1.20696C458.969 1.21141 459.015 1.29176 460.952 1.29095C461.374 1.29054 463.71 1.18558 464.565 1.18841C467.493 1.19771 476.2 1.35883 477.415 1.35418C480.786 1.34048 479.492 1.2156 480.948 1.19292C485.836 1.11791 486.375 1.30546 491.217 1.24456C492.083 1.23367 494.955 1.07023 498.544 1.0916C500.003 1.10049 502.487 1.18487 503.604 1.18084C509.688 1.15905 516.481 1.04729 522.052 1.06584C526.62 1.08119 525.392 1.20736 527.807 1.2243C530.223 1.24078 533.14 1.09446 534.792 1.08599C537.435 1.07271 540.648 1.1558 541.469 1.15459C557.626 1.12999 571.995 1.03363 587.582 0.998948C576.997 0.941275 566.423 0.888345 555.906 0.828655C549.935 0.959324 552.907 0.836802 548.977 0.796062C545.867 0.763802 545.114 0.985136 541.025 0.960617C541.029 0.960617 541.032 0.960617 541.035 0.960617C538.927 0.947711 534.358 0.794437 529.868 0.858564C529.709 0.861007 529.309 0.975872 525.948 0.979905C518.394 0.988778 506.818 1.0477 498.318 1.02312C495.822 1.01586 496.331 0.895215 493.379 0.880293C491.227 0.8695 488.733 0.981048 485.362 0.9561C481.134 0.924239 479.106 0.732358 476.201 0.998948C475.961 0.903766 476.082 0.810941 475.797 0.718179ZM242.295 0.950119C241.702 0.939582 233.749 0.64201 236.107 0.959763C246.796 1.0977 258.351 1.02918 269.598 1.10662C265.758 0.792436 259.261 0.916265 251.376 0.939254C251.373 0.939254 251.369 0.939254 251.366 0.939254C250.993 0.940325 252.55 0.858213 250.434 0.87309C249.408 0.88035 245.474 1.00618 242.295 0.950119Z" fill="#FACA51"/>
</svg>
