<svg width="677" height="352" viewBox="0 0 677 352" fill="none" xmlns="http://www.w3.org/2000/svg">
<path d="M2.04458 0.295211C15.5581 0.041023 29.0539 -0.0676098 42.9545 0.043103C46.1219 0.0681388 45.8234 0.2646 47.1256 0.296377C49.5189 0.355064 53.5352 0.143072 54.0983 0.143072C57.5926 0.14037 56.2271 0.484237 56.6975 0.497481C61.9407 0.637087 60.4315 0.245412 65.4444 0.207775C71.9724 0.158669 80.3491 0.228731 88.2145 0.247995C90.9767 0.255697 89.7469 0.517479 95.7085 0.49544C99.9318 0.480034 112.887 0.181667 118.852 0.500395C118.887 0.620748 118.134 0.753625 117.817 0.877829C126.368 0.376216 129.429 0.398224 141.552 0.520505C143.47 0.539764 145.286 0.333682 148.665 0.409753C152.042 0.485887 152.185 0.80357 158.976 0.799719C161.385 0.79759 162.847 0.573557 166.54 0.563932C177.046 0.536019 197.053 0.814281 205.676 0.82391C222.656 0.843156 231.895 0.460801 246.975 0.593661C248.136 0.60329 245.585 0.848814 247.714 0.853638C249.861 0.858453 252.097 0.533164 252.624 0.52546C258.325 0.441733 270.372 0.877509 273.542 0.824784C281.25 0.695752 273.655 0.552404 284.336 0.490777C294.507 0.432133 308.549 0.855647 318.631 0.938451C330.314 1.03468 334.082 0.419495 342.88 1.06174C373.779 1.02418 404.801 1.00121 435.735 0.968471C435.647 1.0965 435.544 1.22458 435.439 1.35261C437.885 1.26402 440.331 1.1753 442.777 1.08768C442.408 1.18298 442.057 1.27838 441.688 1.37272C453.176 1.00498 463.416 0.81527 476.839 0.916301C477.102 0.918216 476.411 1.17349 476.629 1.18007C479.655 1.22821 483.038 1.03184 485.695 1.07806C492.118 1.18879 503.028 1.74542 498.224 1.06465C513.198 1.20521 530.793 0.975048 545.064 1.10691C551.239 1.16371 553.089 1.56716 556.044 1.59044C558.997 1.61352 557.494 1.26684 558.542 1.25351C564.841 1.17648 575.209 1.19079 576.301 1.57878C577.567 1.4238 578.908 1.26693 580.192 1.11099C579.439 1.54118 598.905 1.36337 604.012 1.37388C604.945 1.37581 605.075 1.56438 605.779 1.56246C613.623 1.5383 615.541 1.24273 622.261 1.14451C624.619 1.10984 620.963 1.44216 627.016 1.29869C627.543 1.28609 627.263 0.98753 634.494 0.989456C644.249 0.991891 661.53 0.90771 674.944 0.970449L676.358 0.96714L676.361 2.38745C676.349 4.84732 676.333 7.17718 676.31 9.30677C676.299 10.4327 675.973 7.00446 676.049 12.155C676.076 14.0202 676.307 13.1267 676.309 17.6491C676.319 35.1754 676.053 53.8634 676.273 71.7416C676.012 71.09 675.72 64.7219 675.883 74.2941C675.91 75.8239 676.143 74.6819 676.152 75.368C676.219 80.9275 676.053 85.7477 676.143 91.7647C676.169 93.542 676.352 93.9832 676.396 96.2004C676.46 99.4731 676.199 100.921 676.31 104.722C676.484 110.666 676.732 111.584 676.247 118.955C676.277 160.728 676.414 202.309 676.2 243.941C676.339 255.977 676.494 267.084 676.547 279.63C676.562 283.325 676.231 284.031 676.341 289.925C676.365 291.245 676.72 300.661 676.051 302.034C676.109 304.655 676.111 306.311 676.146 308.563C676.245 306.856 676.344 305.094 676.443 303.458C676.336 312.96 676.572 320.72 676.684 329.131C676.766 335.323 676.479 330.926 676.507 334.726C676.535 338.527 676.6 340.255 676.256 345.006C676.42 346.547 676.469 347.875 676.469 349.387L676.472 350.909L674.944 350.912C672.795 350.912 670.273 350.814 666.236 350.808C665.497 350.807 661.224 350.96 657.653 350.93C655.084 350.908 654.323 350.66 650.244 350.699C649.575 350.704 640.951 351.011 638.205 351.039C633.929 351.083 627.134 350.766 626.307 350.762C614.29 350.706 609.658 351.019 601.124 350.504C599.4 350.81 592.279 350.99 586.525 350.96C579.258 350.922 564.686 350.296 562.697 350.958C554.287 350.663 555.2 350.845 545.226 350.851C536.147 350.857 512.11 350.603 504.752 350.64C497.397 350.676 500.981 351.044 498.06 351.093C493.278 351.174 495.861 350.903 492.589 350.907C483.334 350.918 475.29 350.97 466.457 351.089C465.982 350.898 465.471 350.706 464.978 350.516C464.521 350.579 464.066 350.643 463.609 350.706C461.708 350.705 459.578 350.708 457.819 350.703C472.667 351.539 443.477 350.641 434.714 350.62C427.324 350.602 415.021 350.999 406.909 351.085C404.94 351.106 406.294 350.9 405.89 350.905C401.139 350.963 400.418 351.104 394.03 351.085C390.652 351.074 387.204 350.816 383.913 350.811C359.754 350.777 336.437 351.036 312.436 351.064C308.354 351.069 304.832 350.754 301.401 350.747C296.493 350.737 293.395 350.995 288.786 350.999C284.194 351.003 277.575 350.695 274.46 350.742C271.345 350.788 276.675 351.087 270.974 351.005C268.355 350.967 272.98 350.745 269.744 350.738C259.644 350.717 245.391 350.992 234.639 350.726C235.114 350.792 235.763 350.852 236.344 350.915C224.888 350.889 214.768 350.73 202.943 350.706C198.808 350.698 191.351 350.893 187.286 350.892C183.222 350.891 181.373 350.679 178.119 350.674C176.781 350.671 177.304 350.86 176.407 350.857C165.182 350.806 159.024 350.469 147.271 350.507C104.212 350.648 59.8106 350.769 16.0824 350.896C14.324 350.901 13.1407 351.148 10.5728 351.185C6.61719 351.242 6.42349 351.023 5.89575 351.015C3.41893 350.981 3.4471 351.076 1.94385 351.132L0.203824 351.136L0.199732 349.387C0.177758 348.798 0.161715 347.973 0.161715 346.67C0.161717 336.482 0.340919 320.046 0.325513 309.893C0.289884 286.489 0.097214 266.816 -4.20809e-05 243.87C-0.00774539 242.216 0.284938 243.338 0.288789 240.469C0.319563 220.254 0.0393336 215.975 0.118289 190.813C0.197251 165.649 0.374547 118.154 0.414989 88.6974C0.415669 88.6974 0.416349 88.6974 0.417029 88.6974C-0.124079 79.4248 0.0105066 67.4276 0.419652 57.4683C1.75426 114.905 1.16032 169.859 1.21328 231.201C1.246 269.624 1.60362 309.56 1.85936 349.387L1.85955 349.472L1.94385 349.472C28.9467 349.299 55.9004 349.172 82.2993 349.225C88.4407 349.238 90.9077 349.546 96.0812 349.481C96.9558 349.471 94.6916 349.233 97.3808 349.209C134.333 348.885 173.733 349.427 210.017 349.277C219.801 349.236 221.335 348.971 229.939 348.903C228.426 349.028 227.437 349.159 226.118 349.285C265.394 349.676 304.727 349.502 344.513 349.558C346.308 349.56 346.537 349.82 348.42 349.829C352.185 349.849 355.791 349.564 359.081 349.555C363.375 349.542 364.118 349.748 368.077 349.735C370.009 349.728 369.432 349.53 373.633 349.563C373.985 349.566 374.215 349.774 377.011 349.747C384.665 349.673 400.309 349.499 406.645 349.447C414.737 349.38 421.231 349.693 424.294 349.714C432.563 349.769 432.391 349.448 439.391 349.448C489.226 349.446 536.866 349.811 587.879 349.808C591.084 349.808 602.937 349.451 608.867 349.465C610.855 349.471 621.248 349.565 622.805 349.573C629.122 349.603 634.581 349.819 638.065 349.864C644.822 349.952 652.372 349.615 656.049 349.582C661.547 349.531 670.678 349.555 674.944 349.569L675.126 349.569L675.126 349.387C675.128 348.643 675.13 348.047 675.131 347.644C675.153 341.098 675.569 343.261 675.472 338.563C675.443 337.175 675.124 338.628 675.124 333.738C675.125 329.64 675.365 327.982 675.409 325.185C675.452 322.388 675.08 317.256 675.089 315.512C675.141 306.397 675.385 302.363 675.397 292.439C675.407 284.198 675.236 246.105 675.149 242.938C674.757 228.754 674.933 252.376 674.92 253.708C674.844 260.905 674.693 259.852 674.98 267.031C674.095 273.453 675.473 295.838 674.423 301.575C675.123 307.505 674.77 312.487 674.63 318.734C674.435 327.368 674.843 320.793 674.846 327.092C674.846 329.575 674.529 336.771 674.573 340.5C674.613 343.854 674.814 345.462 674.864 349.387L674.944 349.307C674.505 349.313 674.038 349.317 673.536 349.318C664.616 349.343 657.435 349.229 649.941 348.938C648.568 349.067 647.287 349.196 645.933 349.325C640.759 349.186 635.566 349.048 630.392 348.911C631.219 349.023 632.048 349.137 632.875 349.249C631.361 349.266 629.843 349.281 628.33 349.297C623.298 349.127 618.492 348.97 613.319 348.795C599.262 349.447 603.341 348.883 595.529 348.798C587.718 348.713 583.197 349.091 577.163 349.093C569.034 349.096 565.301 349.143 557.102 349.116C552.35 349.1 544.291 348.736 550.907 349.313C536.073 349.359 515.763 349.52 502.495 349.286C498.578 349.218 503.801 349.036 503.133 349.014C499.808 348.907 497.007 349.201 493.577 349.159C487.877 349.089 476.774 348.86 472.286 348.806C465.828 348.728 455.674 349.109 454.636 349.137C448.832 349.292 447.279 348.975 445.414 348.997C434.804 349.124 432.462 349.257 429.119 348.589C426.372 348.878 414.865 349.364 412.084 348.878C412.013 349.317 402.46 349.243 396.583 349.353C395.491 349.226 394.382 349.099 393.291 348.971C381.026 349.757 356.603 349.186 340.467 349.093C340.062 349.091 339.339 349.42 336.91 349.346C336.756 349.34 337.006 349.192 335.377 349.173C330.01 349.111 309.532 348.742 307.175 348.738C298.5 348.726 296.984 348.971 291.705 348.994C284.755 349.025 283.75 348.804 277.137 348.835C274.041 348.85 271.223 349.141 266.351 349.1C263.466 349.076 263.181 348.847 260.896 348.829C252.766 348.762 246.796 348.907 239.581 348.608C237.698 349.337 234.25 348.8 230.678 348.745C216.179 348.521 198.108 348.829 185.667 348.762C146.85 348.553 112.429 348.104 74.5095 348.003C68.3505 347.986 66.8667 348.352 60.4086 348.329C57.5058 348.318 54.5128 348.053 49.7628 348.05C45.9453 348.046 40.4757 348.18 35.7085 348.18C34.4417 348.18 34.3286 347.931 32.4634 347.929C22.218 347.919 12.1467 348.008 1.94385 348.105L3.22658 349.387C3.18991 345.503 3.15227 341.599 3.11881 337.659C3.07367 332.363 3.40284 329.088 2.82998 329.986C2.97055 327.962 3.09296 325.995 3.23161 324.095C2.87051 316.81 3.24681 310.86 3.15437 301.006C3.14336 299.943 2.7473 292.503 3.03313 288.282C2.82904 287.983 2.65574 288.638 2.47091 288.515C2.39293 284.346 2.62864 277.939 2.65278 275.123C2.67682 272.311 2.41171 270.428 2.40912 269.582C2.40238 266.362 2.75105 267.112 2.75683 266.866C3.0909 251.858 2.90515 253.438 2.38231 244.376C2.25042 242.106 2.63346 226.699 2.22055 223.583C2.38898 223.442 2.53722 224.301 2.69795 224.548C2.74128 219.92 2.78578 215.256 2.82911 210.61C2.66734 211.595 2.5054 212.779 2.34267 213.676C2.48324 204.193 2.10206 196.307 2.11446 188.548C2.12216 184.114 2.47954 184.654 2.40154 182.05C2.38609 181.54 2.14462 182.402 2.12524 180.891C1.96829 168.555 2.22341 163.151 2.27155 150.798C2.29455 145.009 1.85564 139.943 2.14448 131.638C2.17152 130.88 2.56125 122.733 2.00283 117.701C2.17905 116.1 2.27161 114.687 2.41991 113.491C1.59083 103.302 2.40336 106.118 2.59594 92.3394C2.69602 85.2096 2.55075 61.2278 2.46217 53.4684C2.4082 48.847 2.08232 48.9312 2.06929 48.1066C1.99419 43.1802 2.31004 43.1762 2.25815 38.6204C2.20615 34.0628 1.84885 28.3052 1.88159 23.6245C1.9068 20.039 2.29925 22.8653 2.16255 17.5701C2.13296 16.4734 1.79992 19.607 1.93055 14.0215C1.95077 13.1417 2.31101 4.21751 2.38901 2.38745C2.59796 7.08632 2.87057 20.7063 2.95531 25.8268C4.2468 103.635 4.41054 251.088 4.30483 349.387L1.94385 347.026C15.0451 347.041 27.273 347.059 38.3466 347.081C47.091 347.097 52.8089 347.44 58.5098 347.47C64.2112 347.5 59.3907 347.186 64.5641 347.212C69.7375 347.239 73.507 347.461 78.3461 347.48C110.969 347.611 143.838 347.749 176.197 347.81C184.59 347.825 191.299 347.57 198.936 347.57C201.907 347.57 202 347.899 204.111 347.897C226.862 347.871 247.909 347.554 270.538 347.592C279.933 347.609 290.086 347.886 299.393 347.912C307.064 347.934 315.017 347.745 321.914 347.741C325.659 347.738 327.633 347.988 328.988 348.008C333.704 348.074 332.056 347.767 334.467 347.767C341.117 347.768 344.425 348.138 350.653 348.109C353.098 348.098 352.784 347.862 356.334 347.825C360.838 347.779 359.172 347.997 362.388 348.004C362.582 348.005 361.951 347.837 363.657 347.83C374.637 347.786 388.347 347.653 398.94 347.665C420.848 347.688 442.473 348.012 462.885 348.076C468.041 348.091 466.673 347.872 468.309 347.861C476.191 347.811 479.006 348.074 487.258 347.979C488.631 347.964 494.158 347.66 499.437 347.737C502.287 347.778 505.523 347.968 507.951 348.012C510.378 348.057 510.767 347.777 513.686 347.777C519 347.776 517.454 347.97 525.055 347.935C528.117 347.922 538.339 347.657 546.222 347.677C559.103 347.71 575.067 347.952 590.253 347.955C595.461 347.957 602.152 347.67 610.229 347.667C620.101 347.664 638.29 347.729 648.408 347.733C653.581 347.735 653.955 348.035 654.571 348.048C658.527 348.131 656.929 347.796 659.582 347.809C663.225 347.827 666.624 348.075 669.932 348.091C672.043 348.102 672.378 347.854 672.835 347.852C673.541 347.849 674.244 347.846 674.944 347.843L673.399 349.387C673.329 333.317 673.349 318.909 673.323 302.789C673.18 212.57 672.863 121.489 673.006 31.4465C673.018 23.8976 673.33 23.6135 673.281 16.9798C673.244 11.8712 672.835 6.89623 672.99 2.38745L674.944 4.34179C673.597 4.29577 672.293 4.19961 671.038 4.02845C670.862 4.17867 670.88 4.28576 670.704 4.4225C656.997 4.21071 643.288 4.42993 629.88 4.45689C619.956 4.4771 611.156 4.45315 601.989 4.43678C593.863 4.42132 594.565 4.15959 587.53 4.50119C552.565 4.28742 517.225 4.33947 482.559 3.98415C474.429 4.54361 466.636 4.19112 455.392 4.10831C454.004 4.09784 455.493 4.30197 451.376 4.28464C446.206 4.26332 443.53 3.95145 434.824 3.9687C432.519 3.97352 415.445 4.3193 409.128 4.14212C402.811 3.96497 393.66 3.86099 387.097 3.69153C388.03 3.82536 389.211 3.95339 390.249 4.08529C386.976 4.1084 383.685 4.13067 380.412 4.15378C379.937 3.99297 379.461 3.83203 379.004 3.67026C377.104 3.82335 375.202 3.97456 373.284 4.12959C369.15 3.30349 373.389 3.57294 364.187 3.78188C359.577 3.88588 355.917 3.74154 351.183 3.82531C349.478 3.8561 348.387 4.09935 346.506 4.13046C341.897 4.20555 344.583 3.87075 341.736 3.87252C338.868 3.87541 334.75 4.24315 329.612 4.07946C334.976 3.42385 319.471 3.63772 318.732 4.14707C316.887 4.14802 315.34 4.12685 313.301 4.14125C315.183 2.85478 305.518 3.76772 301.682 3.94393C297.849 4.11989 298.004 3.77423 297.106 3.78771C294.522 3.82528 296.404 3.96881 294.593 3.97366C282.592 4.00255 271.292 3.79152 259.449 3.77226C257.746 3.76952 259.257 3.96486 257.27 3.94568C255.282 3.92642 253.376 3.73197 250.438 3.74545C249.649 3.74887 249.402 3.92046 248.173 3.92061C222.429 3.91291 197.985 3.76672 171.731 3.74458C169.355 3.74265 167.49 4.04774 162.898 4.0372C158.306 4.02661 151.339 3.75128 145.638 3.73C144.124 3.72423 143.714 3.97836 141.708 3.97162C134.881 3.94846 129.001 3.74155 121.91 3.70785C109.929 3.65109 97.3837 3.80613 85.2262 3.65597C82.9214 3.62805 83.2897 3.4161 79.9656 3.35636C74.229 3.25333 76.3878 3.5624 75.2264 3.6038C71.4268 3.73755 70.2328 3.32677 66.5572 3.43243C65.9952 3.44877 66.7969 3.69238 66.2926 3.69619C58.4796 3.73856 58.0694 3.1676 49.7637 3.47381C42.3776 3.14553 54.7147 3.0337 55.9815 2.85943C59.0756 2.43581 50.8963 1.93801 46.075 1.77813C41.9232 1.64047 41.9537 1.90421 40.3008 1.90433C31.5559 1.90529 18.5331 1.95544 11.881 1.8303C7.85133 1.75519 15.1149 1.64533 13.0561 1.55867C11.0155 1.47212 9.69447 1.67033 7.60092 1.45374C5.50689 1.23709 1.23513 0.599495 2.04458 0.295211ZM675.617 64.1542C674.683 52.1089 674.675 22.1884 674.755 2.38745L674.944 2.57603C672.703 2.56697 670.591 2.55678 668.649 2.5467C652.812 2.46389 639.159 1.66263 642.432 2.82387C653.988 2.82906 664.054 2.77768 674.944 2.7547L674.577 2.38745C674.588 7.6305 674.592 13.0648 674.581 18.9487C674.577 20.8315 674.469 32.0614 674.45 35.9679C674.439 38.1668 674.247 38.2373 674.249 41.2285C674.25 41.8797 674.501 45.4884 674.494 46.8082C674.472 51.3292 674.087 64.7751 674.098 66.6522C674.131 71.8583 674.429 69.8604 674.483 72.1074C674.662 79.6564 674.215 80.4885 674.36 87.9671C674.386 89.3044 674.776 93.7391 674.725 99.2821C674.704 101.535 674.502 105.371 674.512 107.095C674.564 116.492 674.831 126.981 674.787 135.585C674.75 142.639 674.449 140.742 674.408 144.472C674.369 148.202 674.718 152.707 674.739 155.258C674.77 159.34 674.572 164.302 674.575 165.569C674.633 190.521 674.864 212.71 674.946 236.782C675.084 220.435 675.21 204.106 675.353 187.864C675.041 178.644 675.333 183.234 675.431 177.164C675.508 172.361 674.979 171.199 675.038 164.884C675.038 164.889 675.038 164.895 675.038 164.9C675.069 161.644 675.435 154.588 675.282 147.655C675.276 147.408 675.001 146.791 674.992 141.601C674.971 129.935 674.83 112.059 674.889 98.9319C674.906 95.0781 675.194 95.8631 675.23 91.3055C675.255 87.9811 674.989 84.1299 675.049 78.9244C675.125 72.396 675.583 69.264 674.946 64.7768C675.174 64.4072 675.395 64.5941 675.617 64.1542ZM376.117 2.26836C375.2 2.2432 362.919 1.53274 366.56 2.29138C383.066 2.6207 400.912 2.45712 418.28 2.642C412.349 1.89189 402.317 2.18753 390.14 2.24242C390.135 2.24242 390.13 2.24242 390.124 2.24242C389.549 2.24497 391.953 2.04893 388.685 2.08445C387.101 2.10178 381.026 2.40221 376.117 2.26836Z" fill="#FACA51"/>
</svg>
